<svg width="760" height="180" viewBox="0 0 760 180" fill="none" xmlns="http://www.w3.org/2000/svg" role="img" aria-labelledby="title desc">
  <title id="title">Invisible Food and Beverages logo</title>
  <desc id="desc">A layered green leaf containing grains and beans, with gold Invisible Food and Beverages text.</desc>
  <rect width="760" height="180" rx="28" fill="#022820"/>
  <path d="M0 0H760V180H0V0Z" fill="url(#bg)"/>
  <path opacity="0.18" d="M-34 174C31 122 111 114 173 148C122 212 36 223-34 174Z" fill="#9AC86C"/>
  <path opacity="0.12" d="M618 14C682 -21 744 -6 788 34C727 73 665 67 618 14Z" fill="#D4FF8A"/>
  <g transform="translate(294 18)">
    <path d="M78 132C20 104 14 52 61 20C104 -9 157 3 190 42C211 66 215 101 197 127C166 157 118 154 78 132Z" fill="url(#leafOuter)"/>
    <path d="M59 124C56 79 77 43 124 25C147 52 151 85 135 112C119 139 86 143 59 124Z" fill="#102D25" fill-opacity="0.55"/>
    <path d="M64 121C78 65 121 39 181 36C185 93 148 129 84 132" stroke="#92C36D" stroke-width="9" stroke-linecap="round"/>
    <path d="M77 137C94 87 126 58 169 39" stroke="#17372E" stroke-width="7" stroke-linecap="round"/>
    <g stroke-linecap="round" stroke-width="4">
      <path d="M91 103C83 89 82 76 87 64" stroke="#8DBE74"/>
      <path d="M105 91C96 78 94 65 98 53" stroke="#A8D180"/>
      <path d="M122 82C114 69 114 58 121 48" stroke="#E6CB7D"/>
      <path d="M140 78C133 67 134 56 143 47" stroke="#F0D48A"/>
      <path d="M154 92C165 83 175 80 185 82" stroke="#A8D180"/>
      <path d="M140 107C153 102 165 102 176 108" stroke="#E6CB7D"/>
    </g>
    <g fill="#E6CB7D">
      <ellipse cx="115" cy="115" rx="11" ry="6" transform="rotate(18 115 115)"/>
      <ellipse cx="146" cy="116" rx="10" ry="6" transform="rotate(-24 146 116)"/>
      <ellipse cx="166" cy="101" rx="8" ry="5" transform="rotate(-38 166 101)"/>
      <ellipse cx="130" cy="100" rx="8" ry="5" transform="rotate(26 130 100)"/>
    </g>
    <g fill="#94C96D">
      <ellipse cx="101" cy="77" rx="7" ry="13" transform="rotate(-24 101 77)"/>
      <ellipse cx="118" cy="67" rx="7" ry="13" transform="rotate(32 118 67)"/>
      <ellipse cx="160" cy="120" rx="7" ry="10" transform="rotate(46 160 120)"/>
      <ellipse cx="177" cy="70" rx="7" ry="11" transform="rotate(8 177 70)"/>
    </g>
  </g>
  <text x="380" y="128" text-anchor="middle" font-family="Arial, Helvetica, sans-serif" font-size="54" font-weight="800" letter-spacing="4" fill="url(#gold)">INVISIBLE FOOD &amp; BEVERAGES</text>
  <text x="380" y="158" text-anchor="middle" font-family="Arial, Helvetica, sans-serif" font-size="20" font-weight="500" letter-spacing="6" fill="#D8D5C5" opacity="0.86">PREMIUM ORGANIC NATURAL</text>
  <defs>
    <linearGradient id="bg" x1="0" x2="760" y1="0" y2="180" gradientUnits="userSpaceOnUse"><stop stop-color="#0D3A22"/><stop offset="0.48" stop-color="#032C25"/><stop offset="1" stop-color="#021F19"/></linearGradient>
    <linearGradient id="leafOuter" x1="60" x2="203" y1="24" y2="143" gradientUnits="userSpaceOnUse"><stop stop-color="#5C9F64"/><stop offset="0.55" stop-color="#B6D777"/><stop offset="1" stop-color="#4B915A"/></linearGradient>
    <linearGradient id="gold" x1="130" x2="633" y1="87" y2="141" gradientUnits="userSpaceOnUse"><stop stop-color="#C69E49"/><stop offset="0.45" stop-color="#F3D27F"/><stop offset="1" stop-color="#C5953F"/></linearGradient>
  </defs>
</svg>
